HIERARCHY
ROOT Hips
{
	OFFSET 0.000000 0.000000 0.000000
	CHANNELS 6 Xposition Yposition Zposition Xrotation Yrotation Zrotation
	JOINT LeftUpLeg_virtual
	{
		OFFSET 0.000000 0.000000 0.000000
		CHANNELS 3 Xrotation Yrotation Zrotation
		JOINT LeftUpLeg
		{
			OFFSET 13.026900 -6.336304 -1.092800
			CHANNELS 3 Xrotation Yrotation Zrotation
			JOINT LeftLeg
			{
				OFFSET 0.524474 -46.096886 9.782700
				CHANNELS 3 Xrotation Yrotation Zrotation
				JOINT LeftFoot
				{
					OFFSET -0.524474 -53.427422 -12.948200
					CHANNELS 3 Xrotation Yrotation Zrotation
					JOINT LeftToeBase
					{
						OFFSET 0.192200 -14.009700 16.364100
						CHANNELS 3 Xrotation Yrotation Zrotation
						JOINT LeftToe_End
						{
							OFFSET -1.784700 -0.561700 9.474800
							CHANNELS 3 Xrotation Yrotation Zrotation
							End Site
							{
								OFFSET 0 0 0
							}
						}
					}
				}
			}
		}
	}
	JOINT RightUpLeg_virtual
	{
		OFFSET 0.000000 0.000000 0.000000
		CHANNELS 3 Xrotation Yrotation Zrotation
		JOINT RightUpLeg
		{
			OFFSET -12.883000 -6.336304 -1.092800
			CHANNELS 3 Xrotation Yrotation Zrotation
			JOINT RightLeg
			{
				OFFSET -0.524587 -46.096825 9.782800
				CHANNELS 3 Xrotation Yrotation Zrotation
				JOINT RightFoot
				{
					OFFSET 0.524587 -53.427383 -12.948300
					CHANNELS 3 Xrotation Yrotation Zrotation
					JOINT RightToeBase
					{
						OFFSET -0.192200 -14.009700 16.364100
						CHANNELS 3 Xrotation Yrotation Zrotation
						JOINT RightToe_End
						{
							OFFSET 1.784700 -0.561700 9.474800
							CHANNELS 3 Xrotation Yrotation Zrotation
							End Site
							{
								OFFSET 0 0 0
							}
						}
					}
				}
			}
		}
	}
	JOINT Spine_virtual
	{
		OFFSET 0.000000 0.000000 0.000000
		CHANNELS 3 Xrotation Yrotation Zrotation
		JOINT Spine
		{
			OFFSET 0.072000 7.257294 -0.789700
			CHANNELS 3 Xrotation Yrotation Zrotation
			JOINT Spine1
			{
				OFFSET 0.000000 12.508769 -0.658067
				CHANNELS 3 Xrotation Yrotation Zrotation
				JOINT Spine1_split
				{
					OFFSET 0.000000 12.508769 -0.658067
					CHANNELS 3 Xrotation Yrotation Zrotation
					JOINT Spine2
					{
						OFFSET 0.000000 12.508769 -0.658067
						CHANNELS 3 Xrotation Yrotation Zrotation
						JOINT Neck_virtual
						{
							OFFSET 0.000000 0.000000 0.000000
							CHANNELS 3 Xrotation Yrotation Zrotation
							JOINT Neck
							{
								OFFSET 0.000000 14.033295 7.520400
								CHANNELS 3 Xrotation Yrotation Zrotation
								JOINT Head
								{
									OFFSET 0.000000 8.198502 5.703100
									CHANNELS 3 Xrotation Yrotation Zrotation
									JOINT HeadTop_End
									{
										OFFSET 0.000000 17.760803 13.332701
										CHANNELS 3 Xrotation Yrotation Zrotation
										End Site
										{
											OFFSET 0 0 0
										}
									}
								}
							}
						}
						JOINT LeftShoulder_virtual
						{
							OFFSET 0.000000 0.000000 0.000000
							CHANNELS 3 Xrotation Yrotation Zrotation
							JOINT LeftShoulder
							{
								OFFSET 6.292450 5.785301 -0.669000
								CHANNELS 3 Xrotation Yrotation Zrotation
								JOINT LeftShoulder_split
								{
									OFFSET 6.292450 5.785301 -0.669000
									CHANNELS 3 Xrotation Yrotation Zrotation
									JOINT LeftArm
									{
										OFFSET 13.907140 -6.093903 1.965100
										CHANNELS 3 Xrotation Yrotation Zrotation
										JOINT LeftForeArm
										{
											OFFSET 34.140198 0.000000 0.000000
											CHANNELS 3 Xrotation Yrotation Zrotation
											JOINT LeftHand
											{
												OFFSET 40.960209 0.000000 0.000000
												CHANNELS 3 Xrotation Yrotation Zrotation
												End Site
												{
													OFFSET 0 0 0
												}
											}
										}
									}
								}
							}
						}
						JOINT RightShoulder_virtual
						{
							OFFSET 0.000000 0.000000 0.000000
							CHANNELS 3 Xrotation Yrotation Zrotation
							JOINT RightShoulder
							{
								OFFSET -6.292450 5.785301 -0.669000
								CHANNELS 3 Xrotation Yrotation Zrotation
								JOINT RightShoulder_split
								{
									OFFSET -6.292450 5.785301 -0.669000
									CHANNELS 3 Xrotation Yrotation Zrotation
									JOINT RightArm
									{
										OFFSET -13.907140 -6.093903 1.965100
										CHANNELS 3 Xrotation Yrotation Zrotation
										JOINT RightForeArm
										{
											OFFSET -34.140198 0.000000 0.000000
											CHANNELS 3 Xrotation Yrotation Zrotation
											JOINT RightHand
											{
												OFFSET -40.960209 0.000000 0.000000
												CHANNELS 3 Xrotation Yrotation Zrotation
												End Site
												{
													OFFSET 0 0 0
												}
											}
										}
									}
								}
							}
						}
					}
				}
			}
		}
	}
}
MOTION
Frames: 11
Frame Time: 0.03333333
-0.724469 91.841988 -6.464226 0.000000 0.000000 0.000000 12.334940 3.516865 -3.674337 11.745729 2.332235 10.891598 33.953577 -4.958545 11.110970 -18.457611 2.844423 -7.731037 -20.826577 -0.666727 -3.235294 0.000000 0.000000 0.000000 14.201605 6.511495 -4.440139 -67.850102 1.452113 -2.217789 63.496710 -5.930242 0.075528 2.258686 3.185869 -9.700628 -3.525707 0.625035 -0.001641 0.000000 0.000000 0.000000 12.780723 1.937310 -3.752091 0.152549 -3.680929 4.545605 2.607771 -2.430824 2.581823 0.930807 -1.615673 -0.131943 0.000000 0.000000 0.000000 2.895863 -2.672393 2.890531 -5.132324 1.674328 -1.406440 -17.007152 -9.344654 7.278618 0.000000 0.000000 0.000000 3.386856 -2.880068 1.947612 -0.416490 2.297740 -2.769555 -3.100215 2.805358 -2.948681 -16.893184 5.861318 -60.429580 -174.272632 -73.564621 -172.003780 0.000000 0.000000 0.000000 4.871614 -1.965127 2.814252 0.576609 -8.838891 15.906831 -0.794976 5.694539 0.716670 -27.484036 8.286850 54.850449 -173.790502 55.378105 173.203543 0.000000 0.000000 0.000000 
-1.595369 93.948006 -6.513180 0.000000 0.000000 0.000000 12.560881 3.663801 -3.414615 10.149540 1.262888 10.112647 34.253617 -3.244862 10.485014 -13.170528 3.343832 -7.134438 -18.229915 -0.057744 -4.714282 0.000000 0.000000 0.000000 13.820019 5.403974 -4.120307 -67.203905 0.863047 -3.660183 63.453243 -5.629737 0.355339 2.907283 3.354838 -9.353031 -2.792546 0.665501 0.171338 0.000000 0.000000 0.000000 12.917049 1.867469 -3.602182 0.242790 -3.522492 4.840539 2.569605 -2.432804 2.326174 0.449253 -0.586007 -0.853639 0.000000 0.000000 0.000000 3.027768 -2.574577 2.556670 -4.799003 1.861625 -1.810400 -16.297987 -9.137165 7.593839 0.000000 0.000000 0.000000 3.533473 -2.830501 1.795772 -0.368868 1.116855 -1.882916 -2.980039 1.489597 -1.769975 -21.102042 4.559783 -60.112256 -173.750874 -74.442594 -171.457815 0.000000 0.000000 0.000000 4.993467 -1.883567 2.555783 0.540179 -8.214972 15.506343 -2.078262 5.914428 -0.191858 -31.252736 10.241588 54.559155 -174.698467 53.918797 173.994862 0.000000 0.000000 0.000000 
-2.008813 98.408134 -6.225086 0.000000 0.000000 0.000000 12.141759 4.424075 -3.447898 5.308432 2.066031 9.743831 35.988728 -0.969484 8.797333 -2.493176 3.348059 -5.568525 -9.790476 0.138551 -6.457956 0.000000 0.000000 0.000000 13.060312 4.256505 -3.925564 -64.302468 1.234771 -4.327143 58.921686 -4.730079 0.208594 5.175088 3.363628 -8.711354 -2.751252 0.621994 0.450683 0.000000 0.000000 0.000000 12.646843 2.007969 -3.266510 0.927075 -2.731894 5.264299 2.544982 -2.207724 1.703236 0.267650 0.459201 -1.059398 0.000000 0.000000 0.000000 3.029389 -2.274771 1.813326 -4.115002 1.901582 -2.142047 -14.822250 -8.991850 7.995745 0.000000 0.000000 0.000000 3.655022 -2.494980 1.353115 -0.271639 -0.889962 -1.005094 -2.279504 0.924585 -1.037794 -28.002217 1.281232 -58.912417 -172.011156 -77.062511 -169.807519 0.000000 0.000000 0.000000 5.056484 -1.661728 1.920990 0.567158 -7.488065 14.280596 -2.303417 4.760187 -0.318680 -38.502155 13.693705 54.295025 -174.947250 55.157869 174.265078 0.000000 0.000000 0.000000 
-1.705185 104.222954 -5.533543 0.000000 0.000000 0.000000 11.308728 5.000145 -3.684009 -1.596153 3.843146 9.749777 39.614452 1.257311 6.818365 10.347311 3.017198 -3.573311 -0.078764 -0.181605 -7.636415 0.000000 0.000000 0.000000 11.992302 3.693444 -3.925942 -58.972010 2.294844 -4.060607 50.800994 -3.687685 0.082599 8.867152 3.161035 -8.049167 -4.734994 0.465317 0.722926 0.000000 0.000000 0.000000 11.844906 2.416883 -2.823426 2.089016 -1.569241 5.595040 2.674914 -1.823817 0.985719 0.116248 1.275083 -0.587489 0.000000 0.000000 0.000000 3.043193 -1.812675 1.025763 -3.232309 1.888569 -2.439849 -12.974777 -8.838079 8.433204 0.000000 0.000000 0.000000 3.815641 -1.972612 0.880968 -0.128296 -3.389601 -0.137053 -1.689411 1.219611 -0.800887 -36.539890 -3.369218 -57.801835 -167.808978 -81.313525 -165.844028 0.000000 0.000000 0.000000 5.132739 -1.353420 1.184456 0.593262 -6.849230 12.189907 -1.817868 2.850503 -0.194711 -47.721630 17.534246 54.742993 -174.654166 59.157689 174.165207 0.000000 0.000000 0.000000 
-1.168041 110.320099 -3.966896 0.000000 0.000000 0.000000 9.926045 5.090022 -3.712325 -9.538459 5.721291 9.537592 45.331300 3.353907 5.149839 20.459167 2.254762 -0.732715 6.116542 -0.586834 -7.524393 0.000000 0.000000 0.000000 10.516925 3.955807 -3.969319 -52.154071 3.399983 -3.297241 41.078892 -2.814930 0.235664 13.249835 3.084523 -6.986727 -8.812457 0.208003 0.829469 0.000000 0.000000 0.000000 10.616773 3.192874 -2.400422 3.630838 -0.365651 5.575950 3.047408 -1.395972 0.457159 0.319744 1.502502 0.136524 0.000000 0.000000 0.000000 3.206189 -1.315670 0.515798 -2.291961 1.833059 -2.729203 -11.040557 -8.634284 8.900773 0.000000 0.000000 0.000000 4.113020 -1.405800 0.645617 0.031207 -5.901759 1.027775 -1.468093 1.805866 -1.033836 -46.098391 -8.695091 -57.594908 -150.538886 -86.457737 -148.874614 0.000000 0.000000 0.000000 5.250320 -1.062199 0.666931 0.569874 -6.419419 9.065455 -1.216064 1.177621 -0.245535 -57.725897 20.584662 56.096279 -173.635553 65.812902 173.486013 0.000000 0.000000 0.000000 
-0.800207 115.319214 -1.552715 0.000000 0.000000 0.000000 7.835499 5.072772 -3.341310 -17.635704 7.036308 8.394980 54.359980 5.391978 4.171228 25.249958 0.984056 2.997433 8.100596 -0.903777 -6.433149 0.000000 0.000000 0.000000 8.438975 4.581837 -3.836952 -45.219923 4.067426 -2.388951 32.255049 -2.109932 0.658983 16.784034 3.504908 -5.310484 -13.372136 -0.139821 0.763140 0.000000 0.000000 0.000000 8.664813 4.085684 -2.045087 5.412945 0.541336 5.016946 3.635901 -1.051900 0.304005 0.670684 1.646915 0.712117 0.000000 0.000000 0.000000 3.614518 -0.926727 0.475972 -1.376864 1.738503 -3.037790 -9.137981 -8.263237 9.443272 0.000000 0.000000 0.000000 4.556677 -0.919867 0.810210 0.206290 -7.864759 2.833910 -1.351804 2.268632 -1.357426 -55.860719 -13.258020 -58.652911 -31.323514 -87.273726 -30.005728 0.000000 0.000000 0.000000 5.494889 -0.885383 0.562768 0.472629 -6.305277 4.767065 -1.077217 -0.208571 -0.606804 -67.219163 22.128290 58.308615 -171.395196 74.461971 171.756226 0.000000 0.000000 0.000000 
-0.661046 118.429688 0.939003 0.000000 0.000000 0.000000 5.439115 5.038987 -2.619267 -25.700414 7.122660 5.620856 67.105687 7.309515 3.898785 25.463102 -0.579670 6.485232 8.243544 -1.126871 -5.160374 0.000000 0.000000 0.000000 5.958211 5.196048 -3.217750 -39.271194 4.004236 -1.595196 26.328957 -1.434480 1.132637 17.884871 4.619547 -3.412301 -16.625483 -0.495992 0.476815 0.000000 0.000000 0.000000 6.349917 4.805108 -1.722898 7.286369 1.000686 3.994748 4.349172 -0.856595 0.536045 0.729876 1.914755 0.792288 0.000000 0.000000 0.000000 4.168178 -0.688899 0.895124 -0.413858 1.572766 -3.350935 -7.296367 -7.762625 10.072169 0.000000 0.000000 0.000000 5.155809 -0.611353 1.340414 0.486839 -8.898814 5.420827 -1.312883 2.390153 -1.378150 -65.160408 -15.982182 -60.557202 -7.629004 -82.834977 -6.649991 0.000000 0.000000 0.000000 5.803785 -0.868033 0.821469 0.292668 -6.406098 -0.556817 -1.319257 -1.160563 -1.359214 -75.862358 21.759055 60.985714 -163.630186 83.913792 164.516116 0.000000 0.000000 0.000000 
-0.892392 119.103073 3.036499 0.000000 0.000000 0.000000 2.858816 4.700715 -1.675051 -34.714508 6.327398 1.919776 81.212950 9.247126 3.811567 23.957232 -1.589052 8.676734 7.665164 -1.108674 -3.871685 0.000000 0.000000 0.000000 3.301357 4.964135 -2.234903 -35.164607 3.001494 -0.906669 24.239105 -0.934011 1.494242 15.673139 5.974422 -1.840259 -17.337416 -0.746000 0.110119 0.000000 0.000000 0.000000 3.825060 5.258474 -1.453153 9.215632 0.996880 2.712952 5.005448 -0.799905 0.996691 0.615440 1.936779 0.395478 0.000000 0.000000 0.000000 4.646704 -0.637194 1.526630 0.754935 1.360816 -3.549245 -5.536761 -7.158487 10.771137 0.000000 0.000000 0.000000 5.732771 -0.521999 2.011773 0.843026 -9.018712 8.821227 -1.202017 2.351470 -0.925171 -73.265247 -16.640475 -62.658386 -1.919394 -79.590787 -1.282841 0.000000 0.000000 0.000000 6.115294 -0.966363 1.266869 0.039613 -6.568074 -6.626856 -1.794606 -1.359836 -1.715698 -83.182080 19.564626 63.718104 -21.011508 87.267701 22.309264 0.000000 0.000000 0.000000 
-1.216185 117.464325 4.784489 0.000000 0.000000 0.000000 0.308588 3.946133 -0.741424 -44.871040 5.801884 -1.120319 93.815196 11.113886 3.238367 24.001461 -1.129864 9.035958 7.324720 -0.864626 -2.709550 0.000000 0.000000 0.000000 0.820269 3.750751 -1.256265 -32.929930 1.277308 -0.255612 26.249552 -0.737905 1.597641 10.133907 6.789930 -1.187924 -15.343335 -0.870754 -0.120128 0.000000 0.000000 0.000000 1.076379 5.547430 -1.132680 11.118654 0.707759 1.434592 5.437354 -0.826801 1.427304 0.336527 1.863843 0.063586 0.000000 0.000000 0.000000 4.878584 -0.726599 2.060740 2.220651 1.080271 -3.506419 -3.996490 -6.452078 11.463516 0.000000 0.000000 0.000000 6.066125 -0.599791 2.525576 1.141260 -8.436488 12.540721 -1.239261 2.090734 -0.208169 -79.504898 -15.525064 -64.299367 1.542975 -78.422647 1.831509 0.000000 0.000000 0.000000 6.320309 -1.101185 1.640815 -0.234469 -6.461720 -12.743979 -2.068692 -1.325142 -1.441380 -88.878902 16.031823 66.128894 -2.552707 82.113770 4.054912 0.000000 0.000000 0.000000 
-1.304448 114.207771 5.677612 0.000000 0.000000 0.000000 -2.190746 2.477874 -0.020030 -55.666199 6.092130 -2.602543 103.455414 12.560655 2.094876 27.112965 0.712184 7.902193 8.852003 -0.493249 -2.209188 0.000000 0.000000 0.000000 -1.293049 1.943113 -0.434587 -32.056964 -0.771673 0.249066 31.427596 -0.998942 1.354436 2.556917 6.726535 -1.857681 -11.939423 -0.879388 -0.133313 0.000000 0.000000 0.000000 -1.610839 5.420082 -0.727505 12.856014 0.378669 0.360268 5.554313 -0.879209 1.572381 0.103384 1.382226 0.173680 0.000000 0.000000 0.000000 4.772962 -0.857789 2.211083 3.944155 0.836711 -3.197927 -2.936006 -5.804046 12.017396 0.000000 0.000000 0.000000 6.064917 -0.772040 2.639635 1.326397 -7.575492 15.852118 -1.436466 1.724656 0.181561 -84.122502 -13.728776 -65.439687 4.894177 -78.877880 4.831403 0.000000 0.000000 0.000000 6.204714 -1.232997 1.712005 -0.434585 -5.733812 -18.181115 -1.944977 -1.317947 -0.322545 -93.116925 11.996399 67.578274 -0.409333 80.357510 1.832155 0.000000 0.000000 0.000000 
-1.100596 110.294327 6.464382 0.000000 0.000000 0.000000 -4.614565 0.326957 0.558468 -65.649524 6.849147 -2.185841 109.998346 13.180593 0.926522 32.190419 2.771595 5.865041 11.652431 -0.116117 -2.339996 0.000000 0.000000 0.000000 -2.978546 0.144334 0.178307 -32.096691 -2.756098 0.401198 38.498071 -1.427540 0.900871 -5.150415 6.182708 -3.726348 -7.835018 -0.796142 0.143347 0.000000 0.000000 0.000000 -3.984384 4.785176 -0.160277 14.318186 0.202203 -0.512581 5.346632 -0.919010 1.307204 0.058654 0.736604 0.463136 0.000000 0.000000 0.000000 4.388236 -0.969038 1.898626 5.630383 0.708210 -2.769432 -2.628268 -5.304163 12.342782 0.000000 0.000000 0.000000 5.682147 -0.951815 2.286229 1.430679 -7.016490 18.234947 -1.531468 1.082728 0.291619 -87.241385 -12.189051 -66.076063 8.341542 -79.939701 7.950304 0.000000 0.000000 0.000000 5.735016 -1.282675 1.425270 -0.496129 -4.363594 -22.303204 -1.552800 -1.613492 1.118487 -96.067956 8.340651 67.862308 -0.369737 80.837597 1.395758 0.000000 0.000000 0.000000 
